<svg id="eg84Met927G1" xmlns="http://www.w3.org/2000/svg" xmlns:xlink="http://www.w3.org/1999/xlink" viewBox="0 0 512 512" shape-rendering="geometricPrecision" text-rendering="geometricPrecision" project-id="06e559d515294493ba07299bacec75e8" export-id="1ce93e87df2a4d3782f12c745c95db1a" cached="false"><defs><linearGradient id="eg84Met927G2-fill" x1="0" y1="0.5" x2="1" y2="0.5" spreadMethod="pad" gradientUnits="objectBoundingBox" gradientTransform="translate(0 0)"><stop id="eg84Met927G2-fill-0" offset="0%" stop-color="#fd60c4"/><stop id="eg84Met927G2-fill-1" offset="0%" stop-color="#6d03a8"/><stop id="eg84Met927G2-fill-2" offset="100%" stop-color="#f85ec0"/></linearGradient></defs><path d="M0,0c.818459-.00706,1.636918-.014119,2.480179-.021393c34.293092-.228665,34.293092-.228665,49.629196,3.224518.903472.198677,1.806943.397354,2.737793.602051c30.140545,6.814162,58.842384,19.290811,83.262207,38.397949.55478.429258,1.109561.858516,1.681152,1.300781c15.185912,11.887427,29.093922,26.020679,40.318848,41.699219.400576.545596.801152,1.091191,1.213867,1.65332c17.385054,23.836375,28.810222,51.56155,34.786133,80.34668.163711.74814.327422,1.496279.496094,2.26709c10.731858,50.965239-1.411486,107.467228-29.014649,151.135254-11.001667,16.589926-23.959079,32.999023-39.481445,45.597656-1.052329.88773-2.104387,1.775781-3.15625,2.664063-33.361637,27.817401-77.956385,47.294168-121.855469,47.539062-1.263173.010589-1.263173.010589-2.551864.021393-35.205175.228104-35.205175.228104-50.436417-3.224518-1.353032-.298015-1.353032-.298015-2.733398-.602051-36.687023-8.292783-69.190679-24.930601-96.954102-50.308105-1.962355-1.773412-3.959114-3.471346-6-5.152344-3.86268-3.296752-7.052227-7.056851-10.3125-10.9375-1.109883-1.260703-1.109883-1.260703-2.242187-2.546875-20.645194-23.877189-34.893648-52.63194-43.070313-83.015625-.230581-.848203-.461162-1.696406-.69873-2.570312-4.14715-16.357016-5.546471-32.730631-5.42627-49.554688.004562-1.366734.004562-1.366734.009216-2.761078.072893-14.832113.966275-29.071054,4.428284-43.551422.214307-.903633.428613-1.807266.649414-2.738281c6.951176-28.290377,19.562085-55.183362,37.350586-78.261719.76957-1.000312,1.539141-2.000625,2.332031-3.03125c8.007-10.041211,16.679421-19.861607,26.667969-27.96875c1.052329-.88773,2.104387-1.775781,3.15625-2.664062C-89.012645,19.421411,-44.319931,0.256017,0,0ZM74.891113,154.080811c-.907958.90752-1.815916,1.81504-2.751388,2.750061-2.479468,2.478609-4.949599,4.966335-7.418119,7.45584-2.585088,2.603887-5.178718,5.199238-7.771441,7.795518-4.903872,4.913182-9.800049,9.83396-14.693486,14.757533-5.573288,5.606863-11.155134,11.205173-16.737704,16.802792-11.479394,11.510721-22.948031,23.032099-34.4096,34.56057-4.316017-1.598479-6.752623-3.3951-10.002197-6.693359-.708345-.712507-.708345-.712507-1.431-1.439408-1.551368-1.563602-3.092035-3.137338-4.633209-4.710983-1.081058-1.091741-2.162934-2.182672-3.24559-3.272827-2.843926-2.866675-5.679588-5.741367-8.512711-8.618714-4.536416-4.606679-9.080342-9.205839-13.633558-13.795913-1.586503-1.603181-3.16642-3.212654-4.745974-4.822678-.974053-.984516-1.948359-1.968782-2.922958-2.952759-.846517-.860006-1.693033-1.720012-2.565201-2.606079-4.40851-3.987601-7.948308-4.594952-13.768539-4.466186-4.110233.613373-6.710102,2.400639-9.539063,5.378906-3.271214,4.748536-3.532037,8.413613-3,14c2.240859,4.626642,5.642477,7.925948,9.243896,11.502686.627995.631499,1.25599,1.262999,1.903016,1.913635c2.069736,2.078513,4.146672,4.149656,6.224182,6.220398c1.443738,1.445086,2.88718,2.890469,4.330337,4.336136c3.022144,3.025089,6.047868,6.046538,9.076157,9.065475c3.881744,3.870339,7.754426,7.749601,11.62448,11.631625c2.977486,2.984711,5.959717,5.964645,8.943408,8.943153c1.430015,1.428681,2.858546,2.858849,4.285565,4.290523c1.993757,1.998835,3.99381,3.99115,5.995668,5.981867.588704.592752,1.177408,1.185505,1.783951,1.796219c4.01006,3.968797,7.062344,6.568469,12.77684,6.818283c10.174372-.420965,17.641834-9.900259,24.349365-16.664551c1.022074-1.01964,2.044793-2.038635,3.0681-3.057037c2.75437-2.745034,5.499338-5.49929,8.242343-8.255675c2.879665-2.891046,5.767106-5.774308,8.65344-8.658693c4.839202-4.838322,9.672417-9.682563,14.501938-14.530548c5.581545-5.602762,11.171924-11.196588,16.767199-16.785637c5.392675-5.386982,10.779665-10.779614,16.163879-16.175052c2.288081-2.292723,4.578031-4.583554,6.869487-6.872902c2.694448-2.692565,5.383848-5.390072,8.069424-8.091484.985927-.990169,1.973554-1.978649,2.962995-2.965306c1.35001-1.346785,2.693254-2.700342,4.036141-4.054229.753399-.755452,1.506798-1.510904,2.283027-2.289248c3.631431-4.13226,4.294008-7.476503,4.161568-12.853544-.669623-4.753497-3.469217-7.499761-6.941406-10.558594-11.012322-7.824544-19.920898,1.420242-27.593262,9.190186Z" transform="translate(244.425942 47.79765)" fill="url(#eg84Met927G2-fill)" stroke="#fff"/></svg>
