<?xml version="1.0" encoding="UTF-8"?>
<svg xmlns="http://www.w3.org/2000/svg" xmlns:xlink="http://www.w3.org/1999/xlink" width="10px" height="10px" viewBox="0 0 10 10" version="1.1">
<g id="surface1">
<path style=" stroke:none;fill-rule:nonzero;fill:rgb(0%,0%,0%);fill-opacity:1;" d="M 8.566406 1.878906 C 8.644531 1.9375 8.714844 2.007812 8.785156 2.078125 C 8.804688 2.097656 8.804688 2.097656 8.828125 2.121094 C 8.972656 2.269531 9.085938 2.414062 9.089844 2.632812 C 9.089844 2.976562 8.898438 3.136719 8.667969 3.367188 C 8.644531 3.386719 8.625 3.410156 8.605469 3.429688 C 8.550781 3.484375 8.496094 3.539062 8.441406 3.59375 C 8.394531 3.640625 8.347656 3.6875 8.300781 3.738281 C 8.144531 3.894531 7.988281 4.046875 7.832031 4.203125 C 7.792969 4.246094 7.75 4.285156 7.710938 4.328125 C 7.460938 4.578125 7.207031 4.832031 6.957031 5.082031 C 6.898438 5.140625 6.839844 5.199219 6.78125 5.257812 C 6.765625 5.273438 6.75 5.289062 6.738281 5.300781 C 6.5 5.539062 6.265625 5.773438 6.03125 6.007812 C 5.792969 6.25 5.550781 6.492188 5.308594 6.734375 C 5.171875 6.871094 5.039062 7.003906 4.902344 7.140625 C 4.789062 7.257812 4.671875 7.371094 4.558594 7.488281 C 4.5 7.546875 4.441406 7.605469 4.382812 7.664062 C 4.328125 7.71875 4.273438 7.773438 4.21875 7.824219 C 4.199219 7.84375 4.179688 7.863281 4.160156 7.882812 C 4.039062 8.011719 3.933594 8.097656 3.753906 8.109375 C 3.738281 8.105469 3.722656 8.105469 3.707031 8.101562 C 3.683594 8.101562 3.683594 8.101562 3.660156 8.097656 C 3.546875 8.070312 3.46875 8.007812 3.386719 7.925781 C 3.378906 7.917969 3.367188 7.90625 3.359375 7.898438 C 3.324219 7.863281 3.289062 7.828125 3.257812 7.796875 C 3.230469 7.769531 3.207031 7.746094 3.183594 7.722656 C 3.117188 7.65625 3.050781 7.589844 2.984375 7.527344 C 2.929688 7.46875 2.875 7.414062 2.820312 7.359375 C 2.691406 7.230469 2.5625 7.101562 2.433594 6.972656 C 2.296875 6.839844 2.164062 6.703125 2.03125 6.570312 C 1.914062 6.457031 1.800781 6.339844 1.683594 6.226562 C 1.617188 6.15625 1.546875 6.089844 1.480469 6.019531 C 1.414062 5.957031 1.351562 5.890625 1.285156 5.828125 C 1.261719 5.804688 1.238281 5.78125 1.214844 5.757812 C 1.042969 5.585938 0.914062 5.441406 0.910156 5.183594 C 0.914062 4.933594 1.007812 4.792969 1.183594 4.621094 C 1.210938 4.589844 1.238281 4.5625 1.265625 4.53125 C 1.421875 4.363281 1.59375 4.25 1.828125 4.234375 C 2.09375 4.238281 2.257812 4.378906 2.4375 4.558594 C 2.449219 4.574219 2.464844 4.589844 2.476562 4.601562 C 2.523438 4.648438 2.570312 4.695312 2.617188 4.742188 C 2.648438 4.773438 2.679688 4.804688 2.714844 4.839844 C 2.796875 4.921875 2.882812 5.007812 2.964844 5.09375 C 3.050781 5.179688 3.136719 5.265625 3.222656 5.351562 C 3.394531 5.519531 3.5625 5.691406 3.730469 5.859375 C 3.792969 5.832031 3.832031 5.800781 3.878906 5.753906 C 3.894531 5.738281 3.90625 5.726562 3.921875 5.710938 C 3.945312 5.6875 3.945312 5.6875 3.96875 5.664062 C 3.984375 5.648438 4 5.632812 4.015625 5.617188 C 4.0625 5.570312 4.105469 5.527344 4.152344 5.480469 C 4.199219 5.433594 4.246094 5.386719 4.296875 5.335938 C 4.378906 5.253906 4.460938 5.167969 4.546875 5.085938 C 4.667969 4.960938 4.789062 4.839844 4.910156 4.71875 C 5.105469 4.523438 5.304688 4.324219 5.5 4.128906 C 5.511719 4.117188 5.523438 4.105469 5.535156 4.09375 C 5.703125 3.925781 5.871094 3.757812 6.035156 3.589844 C 6.054688 3.570312 6.054688 3.570312 6.070312 3.554688 C 6.082031 3.542969 6.09375 3.53125 6.109375 3.515625 C 6.304688 3.320312 6.5 3.125 6.695312 2.929688 C 6.816406 2.808594 6.9375 2.6875 7.058594 2.5625 C 7.140625 2.480469 7.222656 2.398438 7.304688 2.316406 C 7.355469 2.265625 7.402344 2.21875 7.449219 2.171875 C 7.5 2.117188 7.550781 2.066406 7.605469 2.015625 C 7.621094 2 7.632812 1.984375 7.648438 1.96875 C 7.914062 1.707031 8.253906 1.664062 8.566406 1.878906 Z M 8.566406 1.878906 "/>
</g>
</svg>
