<svg id="eftNDevb9Pk1" xmlns="http://www.w3.org/2000/svg" xmlns:xlink="http://www.w3.org/1999/xlink" viewBox="0 0 20 20" shape-rendering="geometricPrecision" text-rendering="geometricPrecision" project-id="13ec1bfb1e0d4e6f90dbe45f91f73bae" export-id="dededbf9bf58497f87b84c15e393f862" cached="false"><defs><linearGradient id="eftNDevb9Pk3-fill" x1="1.20313" y1="10.017562" x2="19.08983" y2="10.017562" spreadMethod="pad" gradientUnits="userSpaceOnUse" gradientTransform="translate(0 0)"><stop id="eftNDevb9Pk3-fill-0" offset="0%" stop-color="#f640f7"/><stop id="eftNDevb9Pk3-fill-1" offset="100%" stop-color="#12599e"/></linearGradient><linearGradient id="eftNDevb9Pk4-fill" x1="6.24219" y1="10.001955" x2="13.76172" y2="10.001955" spreadMethod="pad" gradientUnits="userSpaceOnUse" gradientTransform="translate(0 0)"><stop id="eftNDevb9Pk4-fill-0" offset="0%" stop-color="#ff3ffa"/><stop id="eftNDevb9Pk4-fill-1" offset="50%" stop-color="#9a4ad3"/><stop id="eftNDevb9Pk4-fill-2" offset="100%" stop-color="#005b97"/></linearGradient></defs><g transform="translate(.00218 0.035265)"><path d="M15.964844,3.003906c.054687.054688.113281.105469.167968.160156.050782.046876.105469.089844.160157.136719.316406.28125.59375.585938.855469.917969.03125.035156.058593.074219.089843.113281.972657,1.210938,1.558594,2.660157,1.824219,4.183594.007812.050781.019531.101563.027344.152344.347656,2.207031-.203125,4.609375-1.472656,6.449219-.015626.023437-.03125.042968-.046876.066406-.546874.8125-1.234374,1.539062-2.023437,2.121094-.035156.027343-.074219.054687-.113281.085937-1.398438,1.046875-3.207032,1.742187-4.96875,1.757813-.035156,0-.066406.003906-.101563.003906-1.621093.011718-3.179687-.242188-4.621093-1.027344-.027344-.015625-.054688-.03125-.085938-.046875-.085938-.046875-.171875-.09375-.257812-.140625-.027344-.015625-.054688-.03125-.082032-.042969-.292968-.167969-.292968-.167969-.34375-.320312-.019531-.164063-.019531-.25.050782-.402344.101562-.109375.148437-.148437.289062-.179687.242188.015624.398438.097656.597656.21875c1.90625,1.09375,4.152344,1.335937,6.273438.792968.632812-.171875,1.222656-.429687,1.800781-.738281.023437-.011719.046875-.023437.070313-.039063c1.730468-.917968,3.027343-2.523437,3.71875-4.335937.011718-.027344.023437-.058594.03125-.085937.191406-.503907.304687-1.023438.398437-1.554688.007813-.042969.007813-.042969.015625-.085938.285156-1.636718-.039062-3.503906-.832031-4.953124-.046875-.082032-.089844-.167969-.132813-.25C16.714844,4.9375,15.925781,4.046875,15,3.359375c-.03125-.023437-.03125-.023437-.066406-.050781-1.730469-1.3125-3.964844-1.835938-6.105469-1.550782C7.113281,2.015625,5.53125,2.769531,4.277344,3.96875c-.039063.035156-.078125.074219-.121094.113281-1.398438,1.3125-2.339844,3.300781-2.441406,5.21875-.003906.082031-.003906.167969-.003906.25c0,.03125-.003907.0625-.003907.09375-.015625,1.660157.316407,3.21875,1.183594,4.652344.09375.167969.105469.277344.078125.46875-.070312.109375-.117188.175781-.234375.234375-.078125.007812-.078125.007812-.167969.011719-.03125,0-.058594.003906-.089844.003906-.136718-.023437-.191406-.074219-.289062-.171875-.070312-.101562-.128906-.210938-.1875-.320312-.027344-.046876-.027344-.046876-.050781-.09375-.050781-.097657-.101563-.191407-.152344-.289063-.015625-.027344-.027344-.054687-.042969-.082031-1.070312-2.042969-1.210937-4.5625-.550781-6.757813.382813-1.210937.972656-2.3125,1.804687-3.277343.027344-.03125.054688-.0625.082032-.09375.414062-.472657.855468-.898438,1.363281-1.273438.023437-.015625.042969-.03125.066406-.050781c1.210938-.910157,2.621094-1.46875,4.113281-1.707031.03125-.003907.058594-.011719.089844-.015626c2.519532-.417968,5.347656.421876,7.242188,2.121094Zm0,0" fill="url(#eftNDevb9Pk3-fill)"/><path d="M6.839844,6.257812c.078125.050782.078125.050782.148437.121094.027344.023438.054688.046875.082031.074219s.054688.050781.082032.078125c.023437.023438.046875.046875.074218.070312.074219.070313.148438.144532.21875.21875.027344.027344.054688.054688.085938.082032.089844.089844.175781.179687.265625.269531.0625.0625.125.125.1875.1875.164063.164063.328125.332031.492187.496094.167969.167969.335938.335937.503907.5.328125.332031.65625.660156.984375.988281.117187-.050781.199218-.109375.289062-.199219.023438-.027343.046875-.050781.074219-.078125s.054687-.054687.082031-.082031c.042969-.042969.042969-.042969.085938-.085937.097656-.097657.191406-.191407.289062-.289063.0625-.066406.128906-.132813.195313-.199219.175781-.175781.347656-.347656.523437-.523437.277344-.28125.558594-.5625.835938-.839844.097656-.097656.195312-.195313.292968-.292969.058594-.0625.117188-.121094.179688-.179687.039062-.042969.039062-.042969.082031-.085938.035157-.035156.035157-.035156.074219-.074219.03125-.03125.03125-.03125.066406-.066406.121094-.109375.238282-.105468.394532-.105468.140624.023437.203124.101562.285156.210937.070312.140625.042968.28125,0,.429687-.082032.125-.179688.222657-.289063.324219-.042969.042969-.042969.042969-.089843.089844-.097657.097656-.199219.199219-.300782.296875-.066406.066406-.136718.136719-.207031.203125-.164063.164063-.324219.324219-.488281.484375-.207032.203125-.410156.40625-.617188.609375-.363281.359375-.726562.71875-1.09375,1.078125.164063.199219.339844.382812.523438.5625.054687.054688.113281.109375.171875.167969.03125.027343.058593.058593.089843.089843.160157.15625.320313.316407.480469.472657.203125.203125.40625.402343.613281.601562.164063.164063.328126.324219.492188.488281.0625.0625.125.125.191406.183594.085938.085938.175782.175782.261719.261719.039063.035156.039063.035156.078125.074219.15625.15625.214844.273437.230469.496094-.011719.136718-.070313.214843-.164063.3125-.117187.070312-.1875.078124-.324218.082031-.304688-.089844-.53125-.386719-.75-.605469-.027344-.027344-.054688-.054688-.082032-.082031-.089844-.089844-.179687-.179688-.269531-.269531-.0625-.0625-.125-.125-.1875-.1875-.164063-.164063-.328125-.332032-.492187-.496094-.167969-.167969-.335938-.335938-.503907-.5-.328125-.332032-.65625-.660156-.984375-.988282-.199218.164063-.382812.339844-.5625.523438-.054687.054688-.113281.113281-.167968.171875-.042969.042969-.042969.042969-.089844.089844-.160156.160156-.316406.320312-.476563.480469-.199219.203124-.402343.40625-.601562.613281-.160157.164062-.324219.328125-.488281.492187-.0625.0625-.125.125-.183594.191406-.085938.085938-.175782.175782-.261719.261719-.023437.027344-.050781.050781-.074219.078125-.175781.171875-.285156.222656-.53125.222656-.144531-.058593-.242187-.132812-.3125-.273437-.027344-.15625-.042968-.253906.050782-.386719.023437-.023437.046874-.050781.070312-.074218.023438-.027344.050781-.054688.074219-.082032.121093-.128906.242187-.253906.367187-.375.042969-.042968.042969-.042968.082032-.082031.089843-.089844.179687-.179687.269531-.269531.0625-.0625.125-.125.191406-.1875.164063-.164063.328125-.328125.492187-.492188.167969-.167968.335938-.335937.503907-.503906.328125-.328125.65625-.65625.984375-.984375-.050782-.117187-.109375-.195313-.199219-.285156-.023437-.023438-.046875-.050781-.074219-.074219-.027344-.027344-.054687-.054688-.082031-.082031s-.054687-.054688-.085937-.085938c-.0625-.058593-.121094-.121093-.183594-.183593-.097656-.097657-.195313-.195313-.292969-.292969-.210937-.203125-.417969-.410157-.625-.617188-.242187-.238281-.480469-.476562-.722656-.71875-.09375-.09375-.191407-.191406-.289063-.285156-.058594-.058594-.117187-.117187-.175781-.175781-.027344-.027344-.054687-.054688-.082031-.082032-.039063-.035156-.039063-.035156-.074219-.074218-.023437-.019532-.042969-.042969-.066406-.0625-.121094-.144532-.148438-.269532-.144531-.457032.019531-.121093.082031-.1875.167968-.273437.140625-.070313.277344-.066406.429688-.039063Zm0,0" fill="url(#eftNDevb9Pk4-fill)"/><path d="M3.785156,15.523438c.148438.109374.269532.257812.390625.398437.082031.097656.082031.097656.195313.199219.109375.117187.136718.207031.160156.363281-.042969.152344-.085938.242187-.199219.351563-.164062.058593-.300781.054687-.464843,0-.105469-.078126-.1875-.171876-.273438-.273438-.03125-.03125-.0625-.0625-.097656-.09375-.03125-.035156-.066406-.066406-.097656-.101562-.023438-.023438-.046876-.046876-.074219-.070313-.132813-.132813-.21875-.230469-.226563-.425781.015625-.160156.0625-.253906.183594-.363282.183594-.0625.328125-.070312.503906.015626Zm0,0" fill="#d043e8"/></g></svg>
