<?xml version="1.0" encoding="UTF-8"?>
<svg xmlns="http://www.w3.org/2000/svg" xmlns:xlink="http://www.w3.org/1999/xlink" width="10px" height="10px" viewBox="0 0 10 10" version="1.1">
<g id="surface1">
<path style=" stroke:none;fill-rule:nonzero;fill:rgb(72.941178%,33.333334%,82.745099%);fill-opacity:1;" d="M 0.382812 9.933594 C 0.300781 9.933594 0.214844 9.902344 0.152344 9.835938 C 0.0234375 9.707031 0.0234375 9.5 0.152344 9.371094 L 9.371094 0.152344 C 9.5 0.0234375 9.707031 0.0234375 9.835938 0.152344 C 9.964844 0.28125 9.964844 0.488281 9.835938 0.617188 L 0.617188 9.835938 C 0.554688 9.902344 0.46875 9.933594 0.382812 9.933594 Z M 0.382812 9.933594 "/>
<path style=" stroke:none;fill-rule:nonzero;fill:rgb(72.941178%,33.333334%,82.745099%);fill-opacity:1;" d="M 9.605469 9.933594 C 9.519531 9.933594 9.4375 9.902344 9.371094 9.835938 L 0.152344 0.617188 C 0.0234375 0.488281 0.0234375 0.28125 0.152344 0.152344 C 0.28125 0.0234375 0.488281 0.0234375 0.617188 0.152344 L 9.835938 9.371094 C 9.964844 9.5 9.964844 9.707031 9.835938 9.835938 C 9.773438 9.902344 9.6875 9.933594 9.605469 9.933594 Z M 9.605469 9.933594 "/>
</g>
</svg>
